<mxfile host="app.diagrams.net" modified="2023-08-05T15:47:57.430Z" agent="Mozilla/5.0 (Windows NT 10.0; Win64; x64; rv:109.0) Gecko/20100101 Firefox/115.0" etag="ScP3umWK5BtlJDGKeWfr" version="21.6.6" type="github">
  <diagram name="Page-1" id="CtiNkO1rfJ_EtSY7usm1">
    <mxGraphModel dx="1434" dy="774" grid="1" gridSize="10" guides="1" tooltips="1" connect="1" arrows="1" fold="1" page="1" pageScale="1" pageWidth="850" pageHeight="1100" math="0" shadow="0">
      <root>
        <mxCell id="0" />
        <mxCell id="1" parent="0" />
        <mxCell id="9Xru9T9ZYhiZPkjN94UY-76" value="" style="group" parent="1" vertex="1" connectable="0">
          <mxGeometry x="160" y="440" width="360" height="280" as="geometry" />
        </mxCell>
        <mxCell id="9Xru9T9ZYhiZPkjN94UY-77" value="" style="rounded=0;whiteSpace=wrap;html=1;container=0;" parent="9Xru9T9ZYhiZPkjN94UY-76" vertex="1">
          <mxGeometry x="240" y="40" width="40" height="40" as="geometry" />
        </mxCell>
        <mxCell id="9Xru9T9ZYhiZPkjN94UY-78" value="" style="rounded=0;whiteSpace=wrap;html=1;container=0;fillColor=#d5e8d4;strokeColor=#82b366;" parent="9Xru9T9ZYhiZPkjN94UY-76" vertex="1">
          <mxGeometry x="240" y="80" width="40" height="40" as="geometry" />
        </mxCell>
        <mxCell id="9Xru9T9ZYhiZPkjN94UY-79" value="" style="rounded=0;whiteSpace=wrap;html=1;container=0;fillColor=#d5e8d4;strokeColor=#82b366;" parent="9Xru9T9ZYhiZPkjN94UY-76" vertex="1">
          <mxGeometry x="240" y="120" width="40" height="40" as="geometry" />
        </mxCell>
        <mxCell id="9Xru9T9ZYhiZPkjN94UY-80" value="" style="rounded=0;whiteSpace=wrap;html=1;container=0;" parent="9Xru9T9ZYhiZPkjN94UY-76" vertex="1">
          <mxGeometry x="240" y="160" width="40" height="40" as="geometry" />
        </mxCell>
        <mxCell id="9Xru9T9ZYhiZPkjN94UY-81" value="" style="rounded=0;whiteSpace=wrap;html=1;container=0;" parent="9Xru9T9ZYhiZPkjN94UY-76" vertex="1">
          <mxGeometry x="240" y="200" width="40" height="40" as="geometry" />
        </mxCell>
        <mxCell id="9Xru9T9ZYhiZPkjN94UY-82" value="" style="rounded=0;whiteSpace=wrap;html=1;container=0;" parent="9Xru9T9ZYhiZPkjN94UY-76" vertex="1">
          <mxGeometry x="280" y="40" width="40" height="40" as="geometry" />
        </mxCell>
        <mxCell id="9Xru9T9ZYhiZPkjN94UY-83" value="" style="rounded=0;whiteSpace=wrap;html=1;container=0;" parent="9Xru9T9ZYhiZPkjN94UY-76" vertex="1">
          <mxGeometry x="280" y="80" width="40" height="40" as="geometry" />
        </mxCell>
        <mxCell id="9Xru9T9ZYhiZPkjN94UY-84" value="" style="rounded=0;whiteSpace=wrap;html=1;container=0;" parent="9Xru9T9ZYhiZPkjN94UY-76" vertex="1">
          <mxGeometry x="280" y="120" width="40" height="40" as="geometry" />
        </mxCell>
        <mxCell id="9Xru9T9ZYhiZPkjN94UY-85" value="" style="rounded=0;whiteSpace=wrap;html=1;container=0;" parent="9Xru9T9ZYhiZPkjN94UY-76" vertex="1">
          <mxGeometry x="280" y="160" width="40" height="40" as="geometry" />
        </mxCell>
        <mxCell id="9Xru9T9ZYhiZPkjN94UY-86" value="" style="rounded=0;whiteSpace=wrap;html=1;container=0;" parent="9Xru9T9ZYhiZPkjN94UY-76" vertex="1">
          <mxGeometry x="280" y="200" width="40" height="40" as="geometry" />
        </mxCell>
        <mxCell id="9Xru9T9ZYhiZPkjN94UY-87" value="" style="rounded=0;whiteSpace=wrap;html=1;container=0;" parent="9Xru9T9ZYhiZPkjN94UY-76" vertex="1">
          <mxGeometry x="160" y="40" width="40" height="40" as="geometry" />
        </mxCell>
        <mxCell id="9Xru9T9ZYhiZPkjN94UY-88" value="" style="rounded=0;whiteSpace=wrap;html=1;container=0;" parent="9Xru9T9ZYhiZPkjN94UY-76" vertex="1">
          <mxGeometry x="160" y="80" width="40" height="40" as="geometry" />
        </mxCell>
        <mxCell id="9Xru9T9ZYhiZPkjN94UY-89" value="" style="rounded=0;whiteSpace=wrap;html=1;container=0;" parent="9Xru9T9ZYhiZPkjN94UY-76" vertex="1">
          <mxGeometry x="160" y="120" width="40" height="40" as="geometry" />
        </mxCell>
        <mxCell id="9Xru9T9ZYhiZPkjN94UY-90" value="" style="rounded=0;whiteSpace=wrap;html=1;container=0;" parent="9Xru9T9ZYhiZPkjN94UY-76" vertex="1">
          <mxGeometry x="160" y="160" width="40" height="40" as="geometry" />
        </mxCell>
        <mxCell id="9Xru9T9ZYhiZPkjN94UY-91" value="" style="rounded=0;whiteSpace=wrap;html=1;container=0;" parent="9Xru9T9ZYhiZPkjN94UY-76" vertex="1">
          <mxGeometry x="160" y="200" width="40" height="40" as="geometry" />
        </mxCell>
        <mxCell id="9Xru9T9ZYhiZPkjN94UY-92" value="" style="rounded=0;whiteSpace=wrap;html=1;container=0;" parent="9Xru9T9ZYhiZPkjN94UY-76" vertex="1">
          <mxGeometry x="200" y="40" width="40" height="40" as="geometry" />
        </mxCell>
        <mxCell id="9Xru9T9ZYhiZPkjN94UY-93" value="" style="rounded=0;whiteSpace=wrap;html=1;container=0;fillColor=#d5e8d4;strokeColor=#82b366;" parent="9Xru9T9ZYhiZPkjN94UY-76" vertex="1">
          <mxGeometry x="200" y="80" width="40" height="40" as="geometry" />
        </mxCell>
        <mxCell id="9Xru9T9ZYhiZPkjN94UY-94" value="" style="rounded=0;whiteSpace=wrap;html=1;container=0;fillColor=#d5e8d4;strokeColor=#82b366;" parent="9Xru9T9ZYhiZPkjN94UY-76" vertex="1">
          <mxGeometry x="200" y="120" width="40" height="40" as="geometry" />
        </mxCell>
        <mxCell id="9Xru9T9ZYhiZPkjN94UY-95" value="" style="rounded=0;whiteSpace=wrap;html=1;container=0;" parent="9Xru9T9ZYhiZPkjN94UY-76" vertex="1">
          <mxGeometry x="200" y="160" width="40" height="40" as="geometry" />
        </mxCell>
        <mxCell id="9Xru9T9ZYhiZPkjN94UY-96" value="" style="rounded=0;whiteSpace=wrap;html=1;container=0;" parent="9Xru9T9ZYhiZPkjN94UY-76" vertex="1">
          <mxGeometry x="200" y="200" width="40" height="40" as="geometry" />
        </mxCell>
        <mxCell id="9Xru9T9ZYhiZPkjN94UY-97" value="" style="rounded=0;whiteSpace=wrap;html=1;container=0;" parent="9Xru9T9ZYhiZPkjN94UY-76" vertex="1">
          <mxGeometry x="80" y="40" width="40" height="40" as="geometry" />
        </mxCell>
        <mxCell id="9Xru9T9ZYhiZPkjN94UY-98" value="" style="rounded=0;whiteSpace=wrap;html=1;container=0;" parent="9Xru9T9ZYhiZPkjN94UY-76" vertex="1">
          <mxGeometry x="80" y="80" width="40" height="40" as="geometry" />
        </mxCell>
        <mxCell id="9Xru9T9ZYhiZPkjN94UY-99" value="" style="rounded=0;whiteSpace=wrap;html=1;container=0;" parent="9Xru9T9ZYhiZPkjN94UY-76" vertex="1">
          <mxGeometry x="80" y="120" width="40" height="40" as="geometry" />
        </mxCell>
        <mxCell id="9Xru9T9ZYhiZPkjN94UY-100" value="" style="rounded=0;whiteSpace=wrap;html=1;container=0;" parent="9Xru9T9ZYhiZPkjN94UY-76" vertex="1">
          <mxGeometry x="80" y="160" width="40" height="40" as="geometry" />
        </mxCell>
        <mxCell id="9Xru9T9ZYhiZPkjN94UY-101" value="" style="rounded=0;whiteSpace=wrap;html=1;container=0;" parent="9Xru9T9ZYhiZPkjN94UY-76" vertex="1">
          <mxGeometry x="80" y="200" width="40" height="40" as="geometry" />
        </mxCell>
        <mxCell id="9Xru9T9ZYhiZPkjN94UY-102" value="" style="rounded=0;whiteSpace=wrap;html=1;container=0;" parent="9Xru9T9ZYhiZPkjN94UY-76" vertex="1">
          <mxGeometry x="120" y="40" width="40" height="40" as="geometry" />
        </mxCell>
        <mxCell id="9Xru9T9ZYhiZPkjN94UY-103" value="" style="rounded=0;whiteSpace=wrap;html=1;container=0;" parent="9Xru9T9ZYhiZPkjN94UY-76" vertex="1">
          <mxGeometry x="120" y="80" width="40" height="40" as="geometry" />
        </mxCell>
        <mxCell id="9Xru9T9ZYhiZPkjN94UY-104" value="" style="rounded=0;whiteSpace=wrap;html=1;container=0;" parent="9Xru9T9ZYhiZPkjN94UY-76" vertex="1">
          <mxGeometry x="120" y="120" width="40" height="40" as="geometry" />
        </mxCell>
        <mxCell id="9Xru9T9ZYhiZPkjN94UY-105" value="" style="rounded=0;whiteSpace=wrap;html=1;container=0;" parent="9Xru9T9ZYhiZPkjN94UY-76" vertex="1">
          <mxGeometry x="120" y="160" width="40" height="40" as="geometry" />
        </mxCell>
        <mxCell id="9Xru9T9ZYhiZPkjN94UY-106" value="" style="rounded=0;whiteSpace=wrap;html=1;container=0;" parent="9Xru9T9ZYhiZPkjN94UY-76" vertex="1">
          <mxGeometry x="120" y="200" width="40" height="40" as="geometry" />
        </mxCell>
        <mxCell id="9Xru9T9ZYhiZPkjN94UY-107" value="" style="rounded=0;whiteSpace=wrap;html=1;container=0;fillColor=#f8cecc;strokeColor=#b85450;" parent="9Xru9T9ZYhiZPkjN94UY-76" vertex="1">
          <mxGeometry x="40" y="40" width="40" height="40" as="geometry" />
        </mxCell>
        <mxCell id="9Xru9T9ZYhiZPkjN94UY-108" value="" style="rounded=0;whiteSpace=wrap;html=1;container=0;" parent="9Xru9T9ZYhiZPkjN94UY-76" vertex="1">
          <mxGeometry x="40" y="80" width="40" height="40" as="geometry" />
        </mxCell>
        <mxCell id="9Xru9T9ZYhiZPkjN94UY-109" value="" style="rounded=0;whiteSpace=wrap;html=1;container=0;" parent="9Xru9T9ZYhiZPkjN94UY-76" vertex="1">
          <mxGeometry x="40" y="120" width="40" height="40" as="geometry" />
        </mxCell>
        <mxCell id="9Xru9T9ZYhiZPkjN94UY-110" value="" style="rounded=0;whiteSpace=wrap;html=1;container=0;" parent="9Xru9T9ZYhiZPkjN94UY-76" vertex="1">
          <mxGeometry x="40" y="160" width="40" height="40" as="geometry" />
        </mxCell>
        <mxCell id="9Xru9T9ZYhiZPkjN94UY-111" value="" style="rounded=0;whiteSpace=wrap;html=1;container=0;" parent="9Xru9T9ZYhiZPkjN94UY-76" vertex="1">
          <mxGeometry x="40" y="200" width="40" height="40" as="geometry" />
        </mxCell>
        <mxCell id="9Xru9T9ZYhiZPkjN94UY-112" value="&lt;pre&gt;&lt;b&gt;&lt;font style=&quot;font-size: 15px;&quot;&gt;1&lt;/font&gt;&lt;/b&gt;&lt;/pre&gt;" style="text;html=1;strokeColor=none;fillColor=none;align=center;verticalAlign=middle;whiteSpace=wrap;rounded=0;container=0;" parent="9Xru9T9ZYhiZPkjN94UY-76" vertex="1">
          <mxGeometry x="80" width="40" height="40" as="geometry" />
        </mxCell>
        <mxCell id="9Xru9T9ZYhiZPkjN94UY-113" value="&lt;b&gt;&lt;font style=&quot;font-size: 15px;&quot;&gt;2&lt;/font&gt;&lt;/b&gt;" style="text;html=1;strokeColor=none;fillColor=none;align=center;verticalAlign=middle;whiteSpace=wrap;rounded=0;container=0;" parent="9Xru9T9ZYhiZPkjN94UY-76" vertex="1">
          <mxGeometry x="120" width="40" height="40" as="geometry" />
        </mxCell>
        <mxCell id="9Xru9T9ZYhiZPkjN94UY-114" value="&lt;font size=&quot;1&quot;&gt;&lt;b style=&quot;font-size: 15px;&quot;&gt;3&lt;/b&gt;&lt;/font&gt;" style="text;html=1;strokeColor=none;fillColor=none;align=center;verticalAlign=middle;whiteSpace=wrap;rounded=0;container=0;" parent="9Xru9T9ZYhiZPkjN94UY-76" vertex="1">
          <mxGeometry x="160" width="40" height="40" as="geometry" />
        </mxCell>
        <mxCell id="9Xru9T9ZYhiZPkjN94UY-115" value="&lt;b style=&quot;font-size: 15px;&quot;&gt;4&lt;/b&gt;" style="text;html=1;strokeColor=none;fillColor=none;align=center;verticalAlign=middle;whiteSpace=wrap;rounded=0;container=0;" parent="9Xru9T9ZYhiZPkjN94UY-76" vertex="1">
          <mxGeometry x="200" width="40" height="40" as="geometry" />
        </mxCell>
        <mxCell id="9Xru9T9ZYhiZPkjN94UY-116" value="&lt;font size=&quot;1&quot;&gt;&lt;b style=&quot;font-size: 15px;&quot;&gt;5&lt;/b&gt;&lt;/font&gt;" style="text;html=1;strokeColor=none;fillColor=none;align=center;verticalAlign=middle;whiteSpace=wrap;rounded=0;container=0;" parent="9Xru9T9ZYhiZPkjN94UY-76" vertex="1">
          <mxGeometry x="240" width="40" height="40" as="geometry" />
        </mxCell>
        <mxCell id="9Xru9T9ZYhiZPkjN94UY-117" value="&lt;font size=&quot;1&quot;&gt;&lt;b style=&quot;font-size: 15px;&quot;&gt;6&lt;/b&gt;&lt;/font&gt;" style="text;html=1;strokeColor=none;fillColor=none;align=center;verticalAlign=middle;whiteSpace=wrap;rounded=0;container=0;" parent="9Xru9T9ZYhiZPkjN94UY-76" vertex="1">
          <mxGeometry x="280" width="40" height="40" as="geometry" />
        </mxCell>
        <mxCell id="9Xru9T9ZYhiZPkjN94UY-118" value="&lt;font size=&quot;1&quot;&gt;&lt;b style=&quot;font-size: 15px;&quot;&gt;7&lt;/b&gt;&lt;/font&gt;" style="text;html=1;strokeColor=none;fillColor=none;align=center;verticalAlign=middle;whiteSpace=wrap;rounded=0;container=0;" parent="9Xru9T9ZYhiZPkjN94UY-76" vertex="1">
          <mxGeometry x="320" width="40" height="40" as="geometry" />
        </mxCell>
        <mxCell id="9Xru9T9ZYhiZPkjN94UY-119" value="&lt;pre&gt;&lt;b&gt;&lt;font style=&quot;font-size: 15px;&quot;&gt;1&lt;/font&gt;&lt;/b&gt;&lt;/pre&gt;" style="text;html=1;strokeColor=none;fillColor=none;align=center;verticalAlign=middle;whiteSpace=wrap;rounded=0;container=0;" parent="9Xru9T9ZYhiZPkjN94UY-76" vertex="1">
          <mxGeometry y="80" width="40" height="40" as="geometry" />
        </mxCell>
        <mxCell id="9Xru9T9ZYhiZPkjN94UY-120" value="&lt;b&gt;&lt;font style=&quot;font-size: 15px;&quot;&gt;2&lt;/font&gt;&lt;/b&gt;" style="text;html=1;strokeColor=none;fillColor=none;align=center;verticalAlign=middle;whiteSpace=wrap;rounded=0;container=0;" parent="9Xru9T9ZYhiZPkjN94UY-76" vertex="1">
          <mxGeometry y="120" width="40" height="40" as="geometry" />
        </mxCell>
        <mxCell id="9Xru9T9ZYhiZPkjN94UY-121" value="&lt;font size=&quot;1&quot;&gt;&lt;b style=&quot;font-size: 15px;&quot;&gt;3&lt;/b&gt;&lt;/font&gt;" style="text;html=1;strokeColor=none;fillColor=none;align=center;verticalAlign=middle;whiteSpace=wrap;rounded=0;container=0;" parent="9Xru9T9ZYhiZPkjN94UY-76" vertex="1">
          <mxGeometry y="160" width="40" height="40" as="geometry" />
        </mxCell>
        <mxCell id="9Xru9T9ZYhiZPkjN94UY-122" value="&lt;b style=&quot;font-size: 15px;&quot;&gt;4&lt;/b&gt;" style="text;html=1;strokeColor=none;fillColor=none;align=center;verticalAlign=middle;whiteSpace=wrap;rounded=0;container=0;" parent="9Xru9T9ZYhiZPkjN94UY-76" vertex="1">
          <mxGeometry y="200" width="40" height="40" as="geometry" />
        </mxCell>
        <mxCell id="9Xru9T9ZYhiZPkjN94UY-123" value="&lt;font size=&quot;1&quot;&gt;&lt;b style=&quot;font-size: 15px;&quot;&gt;5&lt;/b&gt;&lt;/font&gt;" style="text;html=1;strokeColor=none;fillColor=none;align=center;verticalAlign=middle;whiteSpace=wrap;rounded=0;container=0;" parent="9Xru9T9ZYhiZPkjN94UY-76" vertex="1">
          <mxGeometry y="240" width="40" height="40" as="geometry" />
        </mxCell>
        <mxCell id="9Xru9T9ZYhiZPkjN94UY-124" value="" style="rounded=0;whiteSpace=wrap;html=1;container=0;" parent="9Xru9T9ZYhiZPkjN94UY-76" vertex="1">
          <mxGeometry x="320" y="40" width="40" height="40" as="geometry" />
        </mxCell>
        <mxCell id="9Xru9T9ZYhiZPkjN94UY-125" value="" style="rounded=0;whiteSpace=wrap;html=1;container=0;" parent="9Xru9T9ZYhiZPkjN94UY-76" vertex="1">
          <mxGeometry x="320" y="80" width="40" height="40" as="geometry" />
        </mxCell>
        <mxCell id="9Xru9T9ZYhiZPkjN94UY-126" value="" style="rounded=0;whiteSpace=wrap;html=1;container=0;" parent="9Xru9T9ZYhiZPkjN94UY-76" vertex="1">
          <mxGeometry x="320" y="120" width="40" height="40" as="geometry" />
        </mxCell>
        <mxCell id="9Xru9T9ZYhiZPkjN94UY-127" value="" style="rounded=0;whiteSpace=wrap;html=1;container=0;" parent="9Xru9T9ZYhiZPkjN94UY-76" vertex="1">
          <mxGeometry x="320" y="160" width="40" height="40" as="geometry" />
        </mxCell>
        <mxCell id="9Xru9T9ZYhiZPkjN94UY-128" value="" style="rounded=0;whiteSpace=wrap;html=1;container=0;" parent="9Xru9T9ZYhiZPkjN94UY-76" vertex="1">
          <mxGeometry x="320" y="200" width="40" height="40" as="geometry" />
        </mxCell>
        <mxCell id="9Xru9T9ZYhiZPkjN94UY-129" value="" style="rounded=0;whiteSpace=wrap;html=1;container=0;" parent="9Xru9T9ZYhiZPkjN94UY-76" vertex="1">
          <mxGeometry x="240" y="240" width="40" height="40" as="geometry" />
        </mxCell>
        <mxCell id="9Xru9T9ZYhiZPkjN94UY-130" value="" style="rounded=0;whiteSpace=wrap;html=1;container=0;" parent="9Xru9T9ZYhiZPkjN94UY-76" vertex="1">
          <mxGeometry x="280" y="240" width="40" height="40" as="geometry" />
        </mxCell>
        <mxCell id="9Xru9T9ZYhiZPkjN94UY-131" value="" style="rounded=0;whiteSpace=wrap;html=1;container=0;" parent="9Xru9T9ZYhiZPkjN94UY-76" vertex="1">
          <mxGeometry x="160" y="240" width="40" height="40" as="geometry" />
        </mxCell>
        <mxCell id="9Xru9T9ZYhiZPkjN94UY-132" value="" style="rounded=0;whiteSpace=wrap;html=1;container=0;" parent="9Xru9T9ZYhiZPkjN94UY-76" vertex="1">
          <mxGeometry x="200" y="240" width="40" height="40" as="geometry" />
        </mxCell>
        <mxCell id="9Xru9T9ZYhiZPkjN94UY-133" value="" style="rounded=0;whiteSpace=wrap;html=1;container=0;fillColor=#dae8fc;strokeColor=#6c8ebf;" parent="9Xru9T9ZYhiZPkjN94UY-76" vertex="1">
          <mxGeometry x="80" y="240" width="40" height="40" as="geometry" />
        </mxCell>
        <mxCell id="9Xru9T9ZYhiZPkjN94UY-134" value="" style="rounded=0;whiteSpace=wrap;html=1;container=0;fillColor=#dae8fc;strokeColor=#6c8ebf;" parent="9Xru9T9ZYhiZPkjN94UY-76" vertex="1">
          <mxGeometry x="120" y="240" width="40" height="40" as="geometry" />
        </mxCell>
        <mxCell id="9Xru9T9ZYhiZPkjN94UY-135" value="" style="rounded=0;whiteSpace=wrap;html=1;container=0;fillColor=#dae8fc;strokeColor=#6c8ebf;" parent="9Xru9T9ZYhiZPkjN94UY-76" vertex="1">
          <mxGeometry x="40" y="240" width="40" height="40" as="geometry" />
        </mxCell>
        <mxCell id="9Xru9T9ZYhiZPkjN94UY-136" value="" style="rounded=0;whiteSpace=wrap;html=1;container=0;" parent="9Xru9T9ZYhiZPkjN94UY-76" vertex="1">
          <mxGeometry x="320" y="240" width="40" height="40" as="geometry" />
        </mxCell>
        <mxCell id="9Xru9T9ZYhiZPkjN94UY-137" value="&lt;pre&gt;&lt;b&gt;&lt;font style=&quot;font-size: 15px;&quot;&gt;0&lt;/font&gt;&lt;/b&gt;&lt;/pre&gt;" style="text;html=1;strokeColor=none;fillColor=none;align=center;verticalAlign=middle;whiteSpace=wrap;rounded=0;container=0;" parent="9Xru9T9ZYhiZPkjN94UY-76" vertex="1">
          <mxGeometry x="40" width="40" height="40" as="geometry" />
        </mxCell>
        <mxCell id="9Xru9T9ZYhiZPkjN94UY-138" value="&lt;pre&gt;&lt;b&gt;&lt;font style=&quot;font-size: 15px;&quot;&gt;0&lt;/font&gt;&lt;/b&gt;&lt;/pre&gt;" style="text;html=1;strokeColor=none;fillColor=none;align=center;verticalAlign=middle;whiteSpace=wrap;rounded=0;container=0;" parent="9Xru9T9ZYhiZPkjN94UY-76" vertex="1">
          <mxGeometry y="40" width="40" height="40" as="geometry" />
        </mxCell>
        <mxCell id="9Xru9T9ZYhiZPkjN94UY-139" value="&lt;pre&gt;&lt;b&gt;ColdRoom&lt;/b&gt;&lt;/pre&gt;" style="text;html=1;strokeColor=none;fillColor=none;align=center;verticalAlign=middle;whiteSpace=wrap;rounded=0;" parent="9Xru9T9ZYhiZPkjN94UY-76" vertex="1">
          <mxGeometry x="210" y="110" width="60" height="30" as="geometry" />
        </mxCell>
        <mxCell id="9Xru9T9ZYhiZPkjN94UY-140" value="&lt;pre&gt;&lt;b&gt;Indoor&lt;/b&gt;&lt;/pre&gt;" style="text;html=1;strokeColor=none;fillColor=none;align=center;verticalAlign=middle;whiteSpace=wrap;rounded=0;" parent="9Xru9T9ZYhiZPkjN94UY-76" vertex="1">
          <mxGeometry x="70" y="245" width="60" height="30" as="geometry" />
        </mxCell>
        <mxCell id="9Xru9T9ZYhiZPkjN94UY-141" value="" style="shape=image;html=1;verticalAlign=top;verticalLabelPosition=bottom;labelBackgroundColor=#ffffff;imageAspect=0;aspect=fixed;image=https://cdn1.iconfinder.com/data/icons/unicons-line-vol-5/24/robot-128.png" parent="9Xru9T9ZYhiZPkjN94UY-76" vertex="1">
          <mxGeometry x="45" y="45" width="30" height="30" as="geometry" />
        </mxCell>
        <mxCell id="9Xru9T9ZYhiZPkjN94UY-144" value="" style="shape=mxgraph.signs.food.food_truck;html=1;pointerEvents=1;fillColor=#000000;strokeColor=none;verticalLabelPosition=bottom;verticalAlign=top;align=center;" parent="1" vertex="1">
          <mxGeometry x="200" y="730" width="100" height="50" as="geometry" />
        </mxCell>
        <mxCell id="9Xru9T9ZYhiZPkjN94UY-146" value="" style="html=1;verticalLabelPosition=bottom;align=center;labelBackgroundColor=#ffffff;verticalAlign=top;strokeWidth=2;strokeColor=#000000;shadow=0;dashed=0;shape=mxgraph.ios7.icons.monitor;fillStyle=dashed;fillColor=#000000;" parent="1" vertex="1">
          <mxGeometry x="162.5" y="770" width="35" height="30" as="geometry" />
        </mxCell>
        <mxCell id="9Xru9T9ZYhiZPkjN94UY-147" value="" style="curved=1;endArrow=classic;html=1;rounded=0;sketch=1;curveFitting=1;jiggle=2;" parent="1" edge="1">
          <mxGeometry width="50" height="50" relative="1" as="geometry">
            <mxPoint x="140" y="560" as="sourcePoint" />
            <mxPoint x="150" y="720" as="targetPoint" />
            <Array as="points">
              <mxPoint x="160" y="630" />
              <mxPoint x="110" y="580" />
            </Array>
          </mxGeometry>
        </mxCell>
        <mxCell id="9Xru9T9ZYhiZPkjN94UY-148" value="" style="endArrow=classic;html=1;rounded=0;exitX=1.058;exitY=0.59;exitDx=0;exitDy=0;fillColor=#f8cecc;strokeColor=#b85450;strokeWidth=2;exitPerimeter=0;" parent="1" source="9Xru9T9ZYhiZPkjN94UY-144" edge="1">
          <mxGeometry width="50" height="50" relative="1" as="geometry">
            <mxPoint x="370" y="740" as="sourcePoint" />
            <mxPoint x="520" y="760" as="targetPoint" />
          </mxGeometry>
        </mxCell>
        <mxCell id="9Xru9T9ZYhiZPkjN94UY-149" value="&lt;pre&gt;&lt;b&gt;Uscita&lt;/b&gt;&lt;/pre&gt;" style="text;html=1;strokeColor=none;fillColor=none;align=center;verticalAlign=middle;whiteSpace=wrap;rounded=0;" parent="1" vertex="1">
          <mxGeometry x="370" y="760" width="60" height="30" as="geometry" />
        </mxCell>
        <mxCell id="9Xru9T9ZYhiZPkjN94UY-150" value="" style="verticalLabelPosition=bottom;verticalAlign=top;html=1;shape=mxgraph.basic.x;fillColor=#FF0000;strokeColor=#FF0000;fillStyle=solid;" parent="1" vertex="1">
          <mxGeometry x="161.25" y="720" width="37.5" height="40" as="geometry" />
        </mxCell>
        <mxCell id="DFbqzqqVRAHnxMISzXBf-2" value="" style="shape=image;verticalLabelPosition=bottom;labelBackgroundColor=default;verticalAlign=top;aspect=fixed;imageAspect=0;image=data:image/png,iVBORw0KGgoAAAANSUhEUgAAAC4AAAAwCAYAAABuZUjcAAAFOElEQVRoQ+2Yf2hTVxTHzY9mdjhd669a2zRJERxV7PCPZWhV6m833FZFN2HDqcjmmNLWKUXUiv+oqKCioFSlIDpxbo5tbpOtomyygbiKDhWtTdOuq1uRbmHdmv7ycySBGl9y72ueAyGBQ17eOfecz/2++859L7YBT+nH9pRyD0iB/99XLqV4SnFNBVJLJZFQbrd7TW9v773GxsaPNQVVhj0xxXNzc0M2m80BgR17BvAT/N4fDAZ/VFJpBFgKDmwRcOuoW4QNxjr5fQPoDo7TOR7B8W2O9zKBUxp8cUMsAQe4CqgFVBmC3QTuE6fTub+7u/s9ALfgX8z5TLvdXoTvLY5/x2p6enpWNzU13e/PBJICZ+2Kaq9hf2FVQFaoIHw+n7uzs/MLJppJrAP4KcDfUY2L9fcLPC8vz4tyNaIiABUNDQ0HzBZm0psYs1LU7+rqmtrc3NxuJodp8JycnLlc8jMUuY7CE80Ui41lCR1m4i9y/ldyvW0mlylwVCog+RXUPktre8NMIaNYREh3OBy15BuELSPnt7o5zYI3kTiAOpMTFWApvYD/I2Bkcs/LGKyacZUGqi9F9XLsH5ac33Jw1N4ja5Li6SpogC8JMDBHOQ5yLO2xGKth/PTY8eS+LPHErkL1czrwWooXFBS4QqHQ37KBoEq5AvwIAO8Su4LYw9FYrsJnnH+d34tiezi+Jfg24LuG703LwLmJSgHZRuvy0bp+U4ALYCEA3r5x5JhNjm84t8VoyaD6n/gy2tvbM1pbW0MqeC3FSXqdRE4KjlUljOcHvAzwXUyqnOWwOzYO1XfiK8FK8X+uqqMEjyyTDinKpV+rShjr93q9I7lSrwK0E18bXcRfX19/z2CdT+LcSew0Aq1R1VGCezyeQgrLZlNKwmpVwr5+rlQlvzdHzgWY/DwmfyNeDuL/xSc38CuqOkpwaW2oJb27iEsod7/2J7I8BgPslhtWFGfzmhsIBH4ySgK4PDkO1VmSSnCS+Uh2m4JDKdimTR0TiADLga/itOwDj9y40dBI55mAX2om/CjBZTTwvWlpaSPr6ur+UCVM5CfPL/gLEeFlI9XxH8P/EuBjVHV0wO0k7CbRTBJ+p0qoAP8efzHKzzHa3qnzJf5ROs9AOuCiuLwQ7FF1FekgPINLr74fZ4esx+ehs2QZdRbuiVvUucrYRSqBdMGvkSiThKNVCZnkQ7hYVaN9HLAzCPDYA1pWVtZwl8slbXIrdaKdKG45XfCDZFiI7SDp9kTwtE8/7fNrYoyeVWpRe06cPl7JmPexBdT4QSWQLrhsDl+h4lXW5lRVUoEndj02TSaASQ8/z01ZYQRN/FgmW0uc7M4D+e5S1dAClyQsAVFddsAy4GWHs+xDbrlp05jcZZZRmU5ibfD8/PwRvCv+TNLRFPBT4IpOAVUM0IcQYwI5x4XDYU9LS4s8bCk/2uCSiTeWMVxuedYOs1aLuey3lBUSBHDD7gN4BiHPAb+EK3lRN58pcEkaeXY5y6H8FTGfNSmX2ezHDvQlUZmBF7APyXPXTBLT4JI8Ozv7Wf43kfdDuWmPUfQdnaLATgH2A2JL+G5G5eX93dT6BR6FZH3Kv1aVWAcQx7G1vGjIE55MbhiPCeM5J+YHdBanpVtk8HsHy2KjzmTjxSQF3kd9eR8tweRPHgEPYy5MXq7bgJb/DuUFupp7ZCPPKS3JQMvYpMH7ArD+PfTj2UCOA9aJT3pykGPZyj8F+L9kgaPjLQW3CkonTwpcRyUrY1KKW6mmTq6U4joqWRmTUtxKNXVyPQCEoFFPYfxSjwAAAABJRU5ErkJggg==;" vertex="1" parent="1">
          <mxGeometry x="320" y="780" width="40" height="41.74" as="geometry" />
        </mxCell>
        <mxCell id="DFbqzqqVRAHnxMISzXBf-3" value="" style="shape=image;verticalLabelPosition=bottom;labelBackgroundColor=default;verticalAlign=top;aspect=fixed;imageAspect=0;image=data:image/png,iVBORw0KGgoAAAANSUhEUgAAADYAAAA0CAYAAADBjcvWAAAGV0lEQVRoQ+2Ze2wUVRTG6TOktEAVQ6l9Ymur0RZU1Kp/YSJgUasJMUJ8QIlRUOKzETWiJpo0QDUWBE1BTBQQE0qJRogFScBHFB+RFsUU+140KBo0lr79fWbGTNftzp3tbrKSneTk3p0595zznde9Mxs37iy94s5SXONiwP5vkY1FLBaxKPFALBWjJBDGZsQiZuqq/Pz83MHBwRL4Jw0PD0+Mi4vLYn4+lA9dDqVAP0OJPGuB5xjzaVAv83WdnZ17TXUF4wtLxHJzc6dh1L0ouhGaDh3h9zkYPpV5OtQNnYa4PZzN/SmMHfz2Mf+TcQI0ExqETvLsvrECHBOwgoKCif39/VUYUoWB6yzDZzK/ZGho6B3G3R0dHR8G8GxCXl5eITyFrC2Erxi6kLkiPRnqgdaztirU6IUMLCcn5zqUboEaoZ+ge6AvMHBre3t7fagGIfcJ1ipt5yvygCu3IulJZEjASL1KvPsamlZDFYD5nt9rMOJjT9qDMAPwLaUncttJS4Eb9iLbMzAUXo+CBhRuj4+Pv5l0WoHi7V6UmvKiS476C+rFaYqg8eUJGB1vKh3vMKC60HACYMtJuxNObdTO1Wok0K3cV738TkQPMD4J73c2L0bvYz4bg0e1ITs7ew5ra5F1HF37WL/GFJknYKRgDUruQPi7GLTCX4lAEcEPBAiD3lDnY8xhXCyAGDevra3tM60zASY+wG1FxkmmDyK7tKur64gJOC/A4jFGaXEYUGoc/7lsYwFQZgMQk1WTdRi4C68rkl6AzVJDYkkzDvqVtK8MKzCM3o/AIkBpsw14wdOqyMCjPWnExbOvuTHDTj3TiFlR+xRwG5jXsl7p7dpIjCKGEQsQ9iLUiOD7TTwWANiImrKBYfDFkk00KrRGUYWq/SL+AGlYxv1zYdmMDTvcbDAFZm+y2nBr3YT6PycVL8Lwo9z/xo6mDUwRtujN0eqR2i0G2PvwvY6cKaTj4242uAKzjktfIehLaCOGvecmNACwekUEw5dSY5v03AFsf0JCwsLW1ladHwPWo8V/ivWPMb/JrtNgdrgCKyoqSuvp6VFLP4TXXqYr7fECDMdsVld0Ng4nMP9GYz37px4BnGEDxhG/wPs0NizHuZe62eAKTGmP0CFGHZ2qEarR6LJBKQUxcq5tpBNYoH0Mfc/CswqHzLUPw7T9jwCmPW0Da3S4DnqZAFPaqMbSEfo8ina7CdVGjmc3Wg1hRKrZa4N1xUDAuHcQmTUCBzC9Co0dGJ5fgpFPkU415Pf6YBKt04nSdYY2afiXBOIPAdhRQD0ihwEsLyzAMjMzUxITE1W8b2PoqBukKShnKqrdO49agWqMrjgZQN0c564hpbcBTFvE2CMmCVa9lAfLb+vI9XCwSPmnon9TcZxS/o22dfBexdpNZM4NlMOisAHDa+PxWg+GzMfD2lNGXI69Svd1Sgl44Ri9HTjbvfYxbScHnfsYkSm2mw2NQ69HZ3ieCvnQr9/hiZhlTBPjeIwrCABM72h1bgr9j1Rq9zjsBdbNhvQmUM+9lX4dtBWgFaTiNp4t41RywE2PUVd0pM8CjH8V5XqprHYTHo7nZMKjeqNQ42KstCPuJtsTMAlDURsK9CpSQq4rghG9qK9d6NoDsDuhtaThThOFoQBbiqKVCG/Be3NMlITKk5WVdRVgdqjBICMdfXeZyvIMzKo1NY/pKKzDg2tNlXnlI1p7caJeWlOorVnU1hlTGSEBw5MlKPtECiOVknRCbRvLBITmsogz6uemoMQXEjCr1uYBqoH58bS0tNLm5uY+L4qD8RIpbcDNkL6v3EIt+7zKDhmYlZJ3M27Bs9+SkqVelQfit94mWnjWTU1dFqrMMQGzwF3LqJrTJ+yFGHMoVGPouLdZe+Fpk/NgMD1jBibhGRkZ5yUnJ+vrbxn0I7TYC0Bq9ko24OcApfVNo30s8uKwsACzFVLwt5OWL/F7EqR/T3bSzY5R/D8wik5xeujr7e3tS01NndDX16f2rf3pAsYE+FdTT894ATAab1iB2UpIqXKMfMiKoL4JDkBpkP5VSYSSBAT6A75mgDUMDAy84vP59HkvLFdEgDkimInR+k/sCiiH+W8A0XmwKSkpqbGlpUV1GZErosAiYrGh0BgwQ0dFDVssYlETCkNDYhEzdFTUsMUiFjWhMDTkb2zQVmLEtU0PAAAAAElFTkSuQmCC;" vertex="1" parent="1">
          <mxGeometry x="116" y="720" width="44" height="42.37" as="geometry" />
        </mxCell>
        <mxCell id="DFbqzqqVRAHnxMISzXBf-5" value="" style="shape=image;verticalLabelPosition=bottom;labelBackgroundColor=default;verticalAlign=top;aspect=fixed;imageAspect=0;image=data:image/png,iVBORw0KGgoAAAANSUhEUgAAAC4AAAAwCAYAAABuZUjcAAAE40lEQVRoQ+2YWWhUZxTHnUncE4xao5UkM8mkLlVo3AJSA7bUJm8m2latikv7IEhSLLgQI2oFLVHRB4svLiBJCkkwpW5ItVgRXypV0ATcZpxsbqAiojbLjL+DN1BCM99yRyEwFw73Tu53/uf3nXu+LZ4B/fTy9FPuAQnw9/3lEhlPZFwzA4lSkURlZWVt4Jbr8Xied3V17YpGo8Pa29tbNJNo1CxuGff5fJMBLQP6CffVUBzlmcdoGc+DvV5vPvd7XM+MCPtoHDfwnJycEZ2dnWeBzQc2wj2JmBEsikmcl9hQ7DzvToTD4QNuOuAaPDs7+5Pu7m6B+BS7j10FTLJ9iuy+FrjMzMwAGS+mQ3P5KfYIC+K3qq2trdWmA67AAfoFwO8J/IJ7KVmsUUH4/f5JkUhkDe2khF4kJSXNCoVCN1V+vd9bgzMQf0NsHln8FSttbW19ZRIc/yn4HafD4/gaPtPatwIn6Akgi7Alzc3N9SbAvdui9Q9/S0cnw0THGJxAVQIs4AT7wyRYX23RfMK7i+gV6+oZgROgFOGf+cQVLS0t+2IFof4Lk5OTr1G/D1UwTKXfolmFfYTuXVV7ea8NnpGRUUQt1iN+BXGZGfq86OBVXuZh35DFOh0QfG7Q7intC3Ta64J7Eb6O4GhmhMUMxAt9iZO9I3RulfNeGxy/BfjVoZ+iM9C1wBHdC8gMhCeQkfExavVr3tX+5702uPgQ5zkxDhCjXJV1JTjz7hCyIAvG30xdh2PN1XyVEO38mCzraSalIqD4nyPGB8SQMot5KcHJwlrAv0CwMDU1Na2xsbFDJQrAedp8bgG+FZ9yMj5YFUMJDsQ+Pt9AKRUG5WyVoJM5W/Cd+JcxG00PBoO3YsVSgpPxBjLeTsZTyMQKTXDjWcWp8e9I0g6eV6jWCCW4k3E/4A8Rkz2G8sJHdoRymQ7OCsAXEWs/dX7YVcaB+AqBzdgNwJcrqd8OMitw/C7hLhu2WsCPuAJn4RnFwnMfsSbEpr0rcFbaqcQQ8JPczxCr2hW4M9h2cV9HrQdYHNpU8DYZB7waYFk95xDnEHEaXIMHAoF0TjdySNhOufwUS5CDxVgOCA9MahxoWearmLV8dPoB59VZqrOqcnD2QCJeQ0Y+A/zDWODO2bNJ2jDQioA5q/pCaJ+mze+U5C18julscbXBc3Nzx3R0dEgm9yC8MRYMID/Ke+bjatXukI4upTTW08E8mcFw+xf9TarOaoOLEEC7yfo6HgsRl0XG1eWU4HU0F5PtJkoszFFuIp0Nq4SNwJ2BKotLDjYN+KAqgKKs5NgXkk0V2a6jAzeZTSp0NG3ARyIsNewhQzNtT+l8vXJnzMyT1Rm9kUDP1YGWNsbg4kSgbDJ1kcc0gi8ioAwu7Qv/EvwPMgbyma2WoSF1XswUeFtXxApcxFmYhlKX53icCcRlbBuB/1IFJtPzaVOP70p8vuR5CtNfiWr6661rDd4jRG3Kxmu/81uW+j8xOS01ksXHAIq95HkYf5PtwzanTQHglcwmW1Sd/b/3rsF7RGXfDsgP/B6OyYHCiw3CRvH3FOCHcJe/XZa9COPjAl/ojg20+MQNvAeAEsoHciG/PwZwgvzXk2fZW19i9qi0BY17qcQLxFQn7hk3BbBtnwC3zZytXyLjtpmz9Utk3DZztn79NuNvAJIETk9j4nnoAAAAAElFTkSuQmCC;" vertex="1" parent="1">
          <mxGeometry x="120" y="770" width="40" height="41.74" as="geometry" />
        </mxCell>
      </root>
    </mxGraphModel>
  </diagram>
</mxfile>
